# xmcd
#
# Track frame offsets: 
#        150
#        36127
#        77304
#        134638
#        200213
#        233954
#        252836
#        283228
#        308415
#
# Disc length: 4485 seconds
#
# Revision: 0
# Processed by: cddbd v1.5.2PL0 Copyright (c) Steve Scherf et al.
# Submitted via: ExactAudioCopy v1.2
#
DISCID=7b118309
DTITLE=Rufus Thomas - Live In Porretta
DYEAR=2002
DGENRE=Blues
TTITLE0=Walking the Dog
TTITLE1=If There Were No Music
TTITLE2=Do the Funky Chicken
TTITLE3=Today I Started Loving You Again
TTITLE4=New Kinda Love
TTITLE5=The Memphis Train
TTITLE6=Trouble In Mind
TTITLE7=Big Fine Hunk of Woman
TTITLE8=The World Is Round
EXTD=
EXTT0=
EXTT1=
EXTT2=
EXTT3=
EXTT4=
EXTT5=
EXTT6=
EXTT7=
EXTT8=
PLAYORDER=
